<svg xmlns="http://www.w3.org/2000/svg" width="76.54" height="290.008" viewBox="0 0 76.54 290.008">
  <g id="iconfinder_2018_social_media_popular_app_logo_instagram_3225191" transform="translate(0 106.734)">
    <path id="Path_14" data-name="Path 14" d="M38.27,76.54h0A38.274,38.274,0,0,1,0,38.27H0A38.274,38.274,0,0,1,38.27,0h0A38.274,38.274,0,0,1,76.54,38.27h0A38.274,38.274,0,0,1,38.27,76.54Z" fill="#1d1d1b"/>
    <g id="Group_1" data-name="Group 1" transform="translate(12.139 12.147)">
      <path id="Path_15" data-name="Path 15" d="M184.731,163.407c6.973,0,7.8.023,10.555.153a14.334,14.334,0,0,1,4.853.9,8.639,8.639,0,0,1,4.952,4.952,14.532,14.532,0,0,1,.9,4.853c.122,2.755.153,3.582.153,10.555s-.023,7.8-.153,10.555a14.334,14.334,0,0,1-.9,4.853,8.639,8.639,0,0,1-4.952,4.952,14.531,14.531,0,0,1-4.853.9c-2.755.122-3.582.153-10.555.153s-7.8-.023-10.555-.153a14.333,14.333,0,0,1-4.853-.9,8.639,8.639,0,0,1-4.952-4.952,14.531,14.531,0,0,1-.9-4.853c-.122-2.755-.153-3.582-.153-10.555s.023-7.8.153-10.555a14.333,14.333,0,0,1,.9-4.853,8.639,8.639,0,0,1,4.952-4.952,14.532,14.532,0,0,1,4.853-.9c2.755-.13,3.582-.153,10.555-.153m0-4.707c-7.1,0-7.983.031-10.769.161a19.2,19.2,0,0,0-6.345,1.217,12.61,12.61,0,0,0-4.623,3.008,12.858,12.858,0,0,0-3.016,4.631,19.316,19.316,0,0,0-1.217,6.345c-.13,2.786-.161,3.674-.161,10.769s.031,7.983.161,10.769a19.2,19.2,0,0,0,1.217,6.345,13.4,13.4,0,0,0,7.646,7.631,19.317,19.317,0,0,0,6.345,1.217c2.786.13,3.674.161,10.769.161s7.983-.031,10.769-.161a19.2,19.2,0,0,0,6.345-1.217,13.4,13.4,0,0,0,7.631-7.646,19.316,19.316,0,0,0,1.217-6.345c.13-2.786.161-3.674.161-10.769s-.031-7.983-.161-10.769a19.2,19.2,0,0,0-1.217-6.345,13.4,13.4,0,0,0-7.646-7.631,19.316,19.316,0,0,0-6.345-1.217c-2.778-.122-3.666-.153-10.761-.153Z" transform="translate(-158.6 -158.7)" fill="#fff"/>
      <path id="Path_16" data-name="Path 16" d="M338.117,324.7a13.417,13.417,0,1,0,13.417,13.417A13.419,13.419,0,0,0,338.117,324.7Zm0,22.128a8.71,8.71,0,1,1,8.71-8.71A8.71,8.71,0,0,1,338.117,346.828Z" transform="translate(-311.987 -311.994)" fill="#fff"/>
      <circle id="Ellipse_16" data-name="Ellipse 16" cx="3.138" cy="3.138" r="3.138" transform="translate(36.938 9.039)" fill="#fff"/>
    </g>
  </g>
  <g id="iconfinder_2018_social_media_popular_app_logo_facebook_3225194">
    <path id="Path_13" data-name="Path 13" d="M38.27,76.54h0A38.274,38.274,0,0,1,0,38.27H0A38.274,38.274,0,0,1,38.27,0h0A38.274,38.274,0,0,1,76.54,38.27h0A38.274,38.274,0,0,1,38.27,76.54Z" fill="#1d1d1b"/>
    <path id="f" d="M365.706,216.074V186.431h9.95l1.493-11.55H365.706V167.5c0-3.345.926-5.626,5.725-5.626h6.116V151.552a82.994,82.994,0,0,0-8.917-.452c-8.817,0-14.856,5.381-14.856,15.27v8.519H343.8v11.55h9.973v29.636Z" transform="translate(-317.486 -139.535)" fill="#fff"/>
  </g>
  <g id="iconfinder_2018_social_media_popular_app_logo_twitter_3225183" transform="translate(0 213.469)">
    <g id="Dark_Blue">
      <path id="Path_17" data-name="Path 17" d="M38.27,0h0A38.274,38.274,0,0,1,76.54,38.27h0A38.274,38.274,0,0,1,38.27,76.54h0A38.274,38.274,0,0,1,0,38.27H0A38.274,38.274,0,0,1,38.27,0Z" fill="#1d1d1b"/>
    </g>
    <g id="Logo_FIXED">
      <path id="Path_18" data-name="Path 18" d="M202.725,284.975c18.048,0,27.929-14.956,27.929-27.929,0-.421,0-.85-.031-1.271a19.951,19.951,0,0,0,4.9-5.082,19.5,19.5,0,0,1-5.633,1.546,9.839,9.839,0,0,0,4.317-5.427,19.638,19.638,0,0,1-6.23,2.38,9.822,9.822,0,0,0-16.724,8.947,27.88,27.88,0,0,1-20.229-10.256,9.824,9.824,0,0,0,3.039,13.1,9.764,9.764,0,0,1-4.455-1.225v.122a9.817,9.817,0,0,0,7.876,9.621,9.855,9.855,0,0,1-4.432.168,9.837,9.837,0,0,0,9.169,6.82,19.664,19.664,0,0,1-12.185,4.21,18.3,18.3,0,0,1-2.334-.145,27.65,27.65,0,0,0,15.025,4.409" transform="translate(-173.334 -227.265)" fill="#fff"/>
      <path id="Path_19" data-name="Path 19" d="M38.27,0h0A38.274,38.274,0,0,1,76.54,38.27h0A38.274,38.274,0,0,1,38.27,76.54h0A38.274,38.274,0,0,1,0,38.27H0A38.274,38.274,0,0,1,38.27,0Z" fill="none"/>
    </g>
  </g>
</svg>
